<svg width="1440" height="1024" viewBox="0 0 1440 1024" fill="none" xmlns="http://www.w3.org/2000/svg">
<path d="M740.54 488.23C775.67 488.23 814.142 488.813 822.641 492.614C834.112 497.744 835.486 526.348 829.762 557.262C827.312 570.491 812.589 574.757 797.654 576.878C782.718 579 764.641 577.833 734.542 564.688C704.442 551.543 662.866 526.454 634.218 506.82C589.335 476.06 565.966 442.438 551.952 414.167C546.871 403.917 551.194 399.899 557.868 394.304C564.541 388.708 574.785 381.123 602.958 369.339C631.132 357.555 676.925 341.802 717.99 331.937C759.054 322.071 794.002 318.57 832.19 317.35C870.379 316.13 910.75 317.297 942.995 320.524C998.532 326.081 1027.15 337.329 1037.48 344.375C1048.35 351.795 1051.54 369.666 1051.25 388.787C1051.12 397.449 1047.95 403.824 1003.62 446.222C959.3 488.619 873.136 566.801 800.429 620.204C727.722 673.607 671.082 699.862 611.476 718.055C551.87 736.248 491.013 745.583 452.13 748.642C413.248 751.7 398.184 748.2 383.495 739.103C351.825 719.491 329.822 679.972 312.184 637.946C303.403 617.023 302.982 594.17 313.49 545.408C323.998 496.645 347.497 421.964 396.659 333.024C445.822 244.084 519.935 143.147 579.505 74.8132C639.075 6.47913 681.855 -26.1939 724.983 -49.1517C768.111 -72.1095 810.289 -84.3618 843.164 -90.3819C876.039 -96.4021 898.334 -95.8186 933.016 -86.1829C967.699 -76.5472 1014.1 -57.8769 1063.6 -25.5044C1113.11 6.86809 1164.33 52.377 1200.05 87.7816C1235.78 123.186 1254.46 147.108 1278.54 183.935C1302.62 220.763 1331.55 269.773 1353.37 331.777C1375.2 393.782 1389.06 467.296 1383.55 536.965C1378.03 606.634 1352.73 670.23 1277.63 752.584C1202.53 834.939 1078.4 934.125 966.859 997.765C855.315 1061.4 760.113 1086.49 695.102 1099.42C630.091 1112.34 598.156 1112.34 555.494 1093.96C512.832 1075.58 460.411 1038.83 416.534 988.677C372.658 938.527 338.915 876.098 317.315 815.349C295.715 754.6 287.279 697.422 284.44 651.047C281.601 604.672 284.613 570.832 295.806 526.269C306.999 481.706 326.28 427.445 355.796 378.197C385.311 328.949 424.477 286.357 466.947 254.789C509.418 223.221 554.006 203.967 600.475 190.84C646.944 177.712 693.943 171.294 745.269 171.197C796.595 171.1 850.824 177.518 920.938 214.372C991.053 251.226 1075.41 318.323 1127 383.519C1178.59 448.714 1194.86 509.976 1185.77 594.921C1176.67 679.866 1141.73 786.636 1097.81 864.977C1053.9 943.319 1002.08 989.994 926.279 1035.04C850.477 1080.09 752.262 1122.1 638.7 1122.74C525.139 1123.37 399.207 1081.37 306.013 1007.51C212.819 933.648 156.18 829.21 124.592 745.07C93.0037 660.93 88.1833 600.252 115.526 459.305C142.869 318.358 202.521 98.982 276.634 -66.2485C350.747 -231.479 437.514 -335.916 536.441 -389.133C635.368 -442.351 743.826 -441.184 828.32 -411.119C912.813 -381.054 970.055 -322.125 1030.88 -236.924C1091.7 -151.723 1154.36 -42.0354 1194.78 64.9388C1235.19 171.913 1251.46 272.849 1253.21 363.938C1254.97 455.026 1241.71 533.208 1216.81 611.408C1191.9 689.607 1155.75 765.456 1107.3 832.826C1058.85 900.196 999.196 956.791 955.21 993.53C911.224 1030.27 884.712 1045.44 833.998 1064.63C783.284 1083.82 709.171 1106.58 653.216 1118.01C597.262 1129.44 561.711 1128.85 518.392 1121.84C475.073 1114.83 425.061 1101.42 354.709 1050.16C284.358 998.905 195.181 910.221 139.299 796.272C83.4178 682.323 63.5338 545.796 65.0402 428.497C66.5465 311.198 90.0458 217.263 131.375 136.782C172.704 56.302 231.151 -7.87721 303.438 -50.5661C375.725 -93.255 460.082 -112.509 552.646 -100.548C645.21 -88.5874 743.425 -44.8289 858.191 48.6022C972.958 142.033 1101.3 283.811 1180.37 417.235C1259.44 550.659 1285.35 671.432 1295.99 750.569C1306.62 829.705 1301.2 863.545 1283.94 904.316C1266.69 945.086 1237.77 991.762 1195.15 1035.94C1152.53 1080.11 1097.1 1120.37 1027.27 1137.9C957.438 1155.43 874.889 1149.01 795.609 1122.07C716.328 1095.14 642.818 1047.88 585.968 994.069C529.119 940.26 491.159 881.332 459.854 815.384C428.549 749.437 405.049 678.257 393.847 621.751C382.646 565.245 384.453 525.57 399.243 472.459C414.033 419.348 441.75 354.001 485.252 303.418C528.754 252.835 587.201 218.995 689.615 192.519C792.03 166.043 936.641 147.956 1061.75 147.099C1186.86 146.241 1288.09 163.161 1386.63 192.298C1485.18 221.435 1577.97 262.277 1663.73 309.863C1749.49 357.449 1825.41 410.543 1897.06 468.233C1968.71 525.924 2033.79 586.602 2087.49 653.16C2141.2 719.717 2181.57 790.314 2200.86 833.392C2220.15 876.47 2217.14 889.889 2198.72 905.845C2180.3 921.802 2146.55 939.889 2040.9 968.168C1935.24 996.448 1758.7 1034.37 1547.54 1058.58C1336.38 1082.78 1095.97 1092.12 849.801 1087.59C603.634 1083.06 359 1064.39 167.601 1016.85C-23.7989 969.309 -154.551 893.46 -219.498 829.007C-284.446 764.554 -279.625 713.794 -250.63 650.596C-221.635 587.398 -168.611 513.3 -69.8937 425.536C28.8234 337.771 171.627 238.585 334.068 164.443C496.509 90.301 674.26 44.2087 816.743 24.5483C959.227 4.88791 1061.06 13.0562 1216.55 75.6088C1372.04 138.161 1578.11 254.851 1699.03 360.764C1819.95 466.678 1849.48 558.279 1820.7 654.477C1791.93 750.675 1703.96 848.694 1535.12 944.989C1366.27 1041.28 1119.23 1132.89 913.635 1175.11C708.039 1217.34 551.377 1207.43 442.051 1193.56C332.726 1179.7 275.484 1162.2 233.643 1142.97C191.803 1123.75 167.099 1103.32 155.276 1027.75C143.453 952.176 145.261 822.068 190.781 692.03C236.3 561.992 325.477 435.967 412.691 338.372C499.905 240.777 582.453 175.431 686.137 117.263C789.821 59.0955 912.137 10.0859 1001.06 -13.1194C1089.98 -36.3247 1141.8 -32.2405 1217.3 2.24472C1292.8 36.73 1390.41 101.493 1452.75 168.695C1515.08 235.898 1539.19 303.578 1510.93 387.452C1482.68 471.327 1401.33 569.346 1252.48 674.685C1103.62 780.024 889.715 889.712 709.627 952.636C529.539 1015.56 389.748 1028.4 288.813 1025.67C187.877 1022.95 130.033 1004.28 86.0745 981.534C42.116 958.789 13.7963 932.534 -5.31169 904.13C-24.4197 875.727 -33.4579 845.971 -14.3134 771.714C4.83115 697.457 52.4323 579.601 176.977 414.45C301.521 249.299 501.566 40.4251 662.766 -111.519C823.965 -263.462 940.256 -352.146 1038.73 -396.957C1137.2 -441.767 1214.32 -440.017 1265.5 -426.863C1316.68 -413.709 1339.58 -389.204 1365.84 -340.698C1392.09 -292.193 1421.01 -220.429 1431.09 -118.113C1441.17 -15.7979 1431.53 114.894 1375.95 258.652C1320.37 402.41 1219.14 555.273 1044.38 723.872C869.612 892.47 624.376 1072.17 457.069 1172.33C289.762 1272.49 207.816 1287.66 164.095 1293.14C120.374 1298.62 117.361 1293.95 131.174 1252.17C144.987 1210.38 175.717 1131.61 311.153 954.802C446.589 777.991 685.799 505.521 813.548 362.24C941.297 218.96 950.335 213.125 956.799 219.163C963.262 225.201 966.878 243.288 957.894 305.116C948.911 366.943 927.219 471.964 903.994 546.194C880.768 620.425 856.667 660.683 831.834 702.16" stroke="#0A7900" stroke-opacity="0.1" stroke-width="2" stroke-linecap="round"/>
</svg>
