<svg width="15" height="15" viewBox="0 0 15 15" fill="none" xmlns="http://www.w3.org/2000/svg">
<path d="M4.375 4.6875C6.10089 4.6875 7.5 3.98794 7.5 3.125C7.5 2.26205 6.10089 1.5625 4.375 1.5625C2.64911 1.5625 1.25 2.26205 1.25 3.125C1.25 3.98794 2.64911 4.6875 4.375 4.6875Z" stroke="black" stroke-linecap="round" stroke-linejoin="round"/>
<path d="M1.25 3.125C1.25 3.125 1.25 4.44956 1.25 5.3125C1.25 6.17544 2.64911 6.875 4.375 6.875C6.10087 6.875 7.5 6.17544 7.5 5.3125C7.5 4.80138 7.5 3.125 7.5 3.125" stroke="black" stroke-linecap="round" stroke-linejoin="round"/>
<path d="M1.25 5.3125C1.25 5.3125 1.25 6.63706 1.25 7.5C1.25 8.36294 2.64911 9.0625 4.375 9.0625C6.10087 9.0625 7.5 8.36294 7.5 7.5C7.5 6.98888 7.5 5.3125 7.5 5.3125" stroke="black" stroke-linecap="round" stroke-linejoin="round"/>
<path d="M1.25 7.5C1.25 7.5 1.25 8.82456 1.25 9.6875C1.25 10.5504 2.64911 11.25 4.375 11.25C6.10087 11.25 7.5 10.5504 7.5 9.6875C7.5 9.17638 7.5 7.5 7.5 7.5" stroke="black" stroke-linecap="round" stroke-linejoin="round"/>
<path d="M1.25 9.6875C1.25 9.6875 1.25 11.0121 1.25 11.875C1.25 12.7379 2.64911 13.4375 4.375 13.4375C6.10087 13.4375 7.5 12.7379 7.5 11.875C7.5 11.3639 7.5 9.6875 7.5 9.6875" stroke="black" stroke-linecap="round" stroke-linejoin="round"/>
<path d="M10.625 9.0625C12.3509 9.0625 13.75 8.36294 13.75 7.5C13.75 6.63705 12.3509 5.9375 10.625 5.9375C8.89911 5.9375 7.5 6.63705 7.5 7.5C7.5 8.36294 8.89911 9.0625 10.625 9.0625Z" stroke="black" stroke-linecap="round" stroke-linejoin="round"/>
<path d="M7.5 7.5C7.5 7.5 7.5 8.82456 7.5 9.6875C7.5 10.5504 8.89912 11.25 10.625 11.25C12.3509 11.25 13.75 10.5504 13.75 9.6875C13.75 9.17638 13.75 7.5 13.75 7.5" stroke="black" stroke-linecap="round" stroke-linejoin="round"/>
<path d="M7.5 9.6875C7.5 9.6875 7.5 11.0121 7.5 11.875C7.5 12.7379 8.89912 13.4375 10.625 13.4375C12.3509 13.4375 13.75 12.7379 13.75 11.875C13.75 11.3639 13.75 9.6875 13.75 9.6875" stroke="black" stroke-linecap="round" stroke-linejoin="round"/>
</svg>
