<svg width="16" height="16" viewBox="0 0 16 16" fill="none" xmlns="http://www.w3.org/2000/svg">
<path d="M8 15.5C12.1421 15.5 15.5 12.1421 15.5 8C15.5 3.85786 12.1421 0.5 8 0.5C3.85786 0.5 0.5 3.85786 0.5 8C0.5 12.1421 3.85786 15.5 8 15.5Z" stroke="black"/>
<path d="M0.5 6.81521C1.63057 6.28136 2.46675 6.207 3.00852 6.59209C3.82122 7.16977 3.92311 9.52406 5.77156 8.39887C7.62001 7.27369 4.98001 6.81521 5.55313 5.18527C6.12624 3.55534 8.00311 4.82145 8.18971 3.03607C8.31406 1.84579 6.8903 1.39036 3.91835 1.66977" stroke="black"/>
<path d="M12.5005 2C10.3576 3.87072 9.60917 5.00041 10.2552 5.38899C11.2243 5.97189 11.6354 5.15124 12.818 5.38899C14.0005 5.62678 13.7444 7.22964 13.1225 7.22964C12.5005 7.22964 9.27921 6.81942 9.44147 8.69937C9.60369 10.5793 11.5413 10.8576 11.5413 11.9079C11.5413 12.6081 11.1126 13.6798 10.2552 15.1228" stroke="black" stroke-linecap="round"/>
<path d="M1.28906 11.3473C1.63087 11.1982 1.88781 11.089 2.05988 11.0194C3.50254 10.4366 4.57302 10.2992 5.27123 10.6073C6.50592 11.1522 6.03124 12.2525 6.41798 12.6579C6.80468 13.0632 7.77038 12.9453 7.77038 13.7164C7.77038 14.2306 7.59769 14.8113 7.25232 15.4587" stroke="black" stroke-linecap="round"/>
</svg>
