<svg width="16" height="16" viewBox="0 0 16 16" fill="none" xmlns="http://www.w3.org/2000/svg">
<path d="M8 15.5C12.1421 15.5 15.5 12.1421 15.5 8C15.5 3.85786 12.1421 0.5 8 0.5C3.85786 0.5 0.5 3.85786 0.5 8C0.5 12.1421 3.85786 15.5 8 15.5Z" stroke="black"/>
<path d="M0.5 6.81509C1.63057 6.28124 2.46675 6.20688 3.00852 6.59196C3.82122 7.16965 3.92311 9.52394 5.77156 8.39875C7.62001 7.27356 4.98001 6.81509 5.55313 5.18515C6.12624 3.55522 8.00311 4.82133 8.18971 3.03595C8.31406 1.84567 6.8903 1.39024 3.91835 1.66964" stroke="black"/>
<path d="M12.5005 1.99988C10.3576 3.8706 9.60917 5.00029 10.2552 5.38887C11.2243 5.97177 11.6354 5.15112 12.818 5.38887C14.0005 5.62665 13.7444 7.22952 13.1225 7.22952C12.5005 7.22952 9.27921 6.8193 9.44147 8.69925C9.60369 10.5792 11.5413 10.8575 11.5413 11.9078C11.5413 12.608 11.1126 13.6796 10.2552 15.1227" stroke="black" stroke-linecap="round"/>
<path d="M1.28906 11.3475C1.63087 11.1984 1.88781 11.0891 2.05988 11.0196C3.50254 10.4367 4.57302 10.2993 5.27123 10.6074C6.50592 11.1523 6.03124 12.2526 6.41798 12.658C6.80468 13.0634 7.77038 12.9454 7.77038 13.7166C7.77038 14.2307 7.59769 14.8115 7.25232 15.4589" stroke="black" stroke-linecap="round"/>
</svg>
