<svg width="30" height="30" viewBox="0 0 30 30" fill="none" xmlns="http://www.w3.org/2000/svg">
<path d="M14.8125 26.625C21.3364 26.625 26.625 21.3364 26.625 14.8125C26.625 8.28863 21.3364 3 14.8125 3C8.28863 3 3 8.28863 3 14.8125C3 21.3364 8.28863 26.625 14.8125 26.625Z" stroke="black" stroke-width="1.5" stroke-linecap="round" stroke-linejoin="round"/>
<path d="M14.8125 14.2219C16.4435 14.2219 17.7656 12.8998 17.7656 11.2688C17.7656 9.63785 16.4435 8.31567 14.8125 8.31567C13.1815 8.31567 11.8594 9.63785 11.8594 11.2688C11.8594 12.8998 13.1815 14.2219 14.8125 14.2219Z" fill="white" stroke="black" stroke-width="1.5" stroke-linejoin="round"/>
<path d="M6.55762 23.2773C6.76061 20.1994 9.32151 17.7656 12.4509 17.7656H17.1759C20.3011 17.7656 22.8594 20.1929 23.0684 23.2651" stroke="black" stroke-width="1.5" stroke-linecap="round" stroke-linejoin="round"/>
</svg>
