<svg width="24" height="24" viewBox="0 0 24 24" fill="none" xmlns="http://www.w3.org/2000/svg">
<path d="M8.49795 3.84302C8.8612 3.84302 9.1959 4.04003 9.37225 4.35765L10.5955 6.56105C10.7556 6.84955 10.7632 7.1985 10.6156 7.49365L9.43715 9.8505C9.43715 9.8505 9.77865 11.6062 11.2079 13.0354C12.6371 14.4646 14.3869 14.8002 14.3869 14.8002L16.7434 13.622C17.0387 13.4743 17.3879 13.4819 17.6765 13.6424L19.8862 14.8709C20.2035 15.0473 20.4003 15.3818 20.4003 15.7449V18.2816C20.4003 19.5735 19.2003 20.5065 17.9763 20.0935C15.4623 19.2452 11.56 17.6301 9.08655 15.1567C6.61315 12.6833 4.998 8.78095 4.14973 6.267C3.73672 5.04295 4.66976 3.84302 5.9616 3.84302H8.49795Z" fill="white" stroke="black" stroke-width="1.25" stroke-linejoin="round"/>
</svg>
