<svg width="24" height="24" viewBox="0 0 24 24" fill="none" xmlns="http://www.w3.org/2000/svg">
<path d="M8.49795 3.8429C8.8612 3.8429 9.1959 4.03991 9.37225 4.35753L10.5955 6.56093C10.7556 6.84943 10.7632 7.19838 10.6156 7.49353L9.43715 9.85038C9.43715 9.85038 9.77865 11.6061 11.2079 13.0353C12.6371 14.4645 14.3869 14.8001 14.3869 14.8001L16.7434 13.6219C17.0387 13.4742 17.3879 13.4818 17.6765 13.6423L19.8862 14.8708C20.2035 15.0472 20.4003 15.3817 20.4003 15.7448V18.2815C20.4003 19.5734 19.2003 20.5064 17.9763 20.0934C15.4623 19.2451 11.56 17.63 9.08655 15.1566C6.61315 12.6832 4.998 8.78083 4.14973 6.26688C3.73672 5.04283 4.66976 3.8429 5.9616 3.8429H8.49795Z" fill="white" stroke="#0A7900" stroke-width="1.25" stroke-linejoin="round"/>
</svg>
